<?xml version="1.0" standalone="no"?>
<!DOCTYPE svg PUBLIC "-//W3C//DTD SVG 20010904//EN"
 "http://www.w3.org/TR/2001/REC-SVG-20010904/DTD/svg10.dtd">
<svg version="1.0" xmlns="http://www.w3.org/2000/svg"
 width="780.000000pt" height="780.000000pt" viewBox="0 0 780.000000 780.000000"
 preserveAspectRatio="xMidYMid meet">
<metadata>
Created by potrace 1.14, written by Peter Selinger 2001-2017
</metadata>
<g transform="translate(0.000000,780.000000) scale(0.100000,-0.100000)"
fill="#000000" stroke="none">
<path d="M4254 7125 c-58 -30 -63 -85 -17 -165 25 -43 74 -111 101 -139 30
-31 90 -129 102 -166 26 -80 40 -101 107 -165 78 -75 154 -137 338 -274 72
-53 136 -101 143 -107 7 -6 15 -9 18 -7 2 3 -24 31 -59 63 -103 96 -217 207
-217 212 0 7 201 -149 283 -220 107 -93 277 -267 277 -284 0 -7 -4 -13 -10
-14 -70 -6 -149 5 -223 30 -66 22 -170 26 -222 8 -57 -20 -69 -59 -60 -197 12
-191 14 -472 4 -492 -12 -23 -35 -23 -57 -1 -15 14 -17 43 -18 202 -2 229 -10
304 -34 326 -16 14 -43 16 -192 15 -252 -2 -328 -11 -369 -47 -15 -13 -17 -9
-24 34 -4 26 -8 106 -10 178 -7 248 -36 298 -201 340 -33 8 -81 17 -109 19
-27 3 -66 7 -85 10 -19 3 -71 8 -115 11 -85 6 -173 14 -241 20 -41 4 -42 4
-49 -33 -24 -116 -28 -166 -29 -327 0 -139 10 -395 19 -505 1 -19 6 -97 10
-172 l7 -137 -58 6 c-33 4 -107 7 -165 7 -90 1 -110 -2 -127 -17 -26 -24 -41
-88 -47 -207 -8 -171 -10 -173 -157 -172 -278 2 -315 28 -322 223 -2 57 -7
112 -11 122 -4 10 -25 25 -46 33 -45 18 -50 29 -56 114 -3 36 -6 67 -9 69 -2
2 -13 -17 -25 -43 -31 -70 -50 -86 -95 -79 -33 5 -40 3 -59 -22 l-23 -27 -22
22 c-19 19 -31 21 -93 20 -120 -3 -133 -1 -161 25 -30 28 -46 25 -46 -8 0 -40
-12 -65 -32 -70 -18 -5 -20 -12 -15 -84 5 -87 2 -103 -19 -103 -31 0 -46 66
-48 213 -1 47 -3 55 -12 42 -14 -18 -40 -126 -49 -195 -27 -223 -28 -1525 -1
-1666 2 -11 7 -55 11 -99 3 -44 8 -93 10 -110 5 -40 21 -313 30 -505 3 -63 7
-131 9 -150 2 -19 7 -62 11 -95 12 -111 22 -177 35 -225 32 -125 51 -347 65
-765 6 -191 24 -260 82 -320 79 -81 211 -110 554 -121 l187 -6 -4 174 c-5 245
-5 579 0 603 2 11 5 28 5 38 1 9 13 23 27 29 23 11 29 10 45 -11 11 -13 19
-35 19 -50 0 -42 11 -44 40 -10 14 18 41 37 60 43 24 8 39 23 55 54 21 41 35
46 35 12 0 -34 31 -48 113 -48 77 -1 98 -4 150 -24 28 -11 48 -60 61 -148 18
-121 24 -174 31 -265 3 -38 8 -95 10 -125 3 -30 7 -78 10 -105 4 -50 7 -70 26
-177 11 -66 32 -120 52 -136 7 -6 26 -10 42 -9 23 2 29 -3 37 -28 4 -16 6 -45
3 -62 -6 -39 5 -41 45 -11 19 14 47 22 76 23 52 3 61 12 81 80 8 29 12 34 13
18 6 -57 19 -83 43 -84 23 -1 70 1 121 6 40 4 85 -11 113 -36 12 -13 26 -20
29 -16 9 9 20 158 14 202 -8 64 2 110 24 110 31 0 56 -46 67 -120 16 -107 41
-157 51 -102 6 30 2 285 -6 431 -11 205 -21 348 -31 481 -3 33 -7 92 -10 130
-3 39 -7 88 -10 110 -2 22 -7 69 -10 104 -3 36 -8 79 -10 95 -2 17 -7 58 -10
90 -3 33 -8 74 -10 93 -3 18 -7 48 -10 65 -2 18 -11 65 -19 103 -8 39 -17 88
-20 110 -3 22 -14 85 -25 140 -11 55 -22 111 -24 125 -3 14 -19 95 -35 180
-17 85 -33 167 -36 182 -2 15 -12 64 -21 108 -18 90 -12 110 31 110 26 0 39
-22 49 -83 3 -18 15 -77 26 -132 12 -55 23 -109 25 -120 2 -11 13 -65 24 -120
11 -55 22 -109 24 -120 61 -303 75 -388 81 -482 3 -62 8 -120 9 -130 2 -10 7
-54 11 -98 6 -78 12 -126 21 -169 2 -11 7 -34 9 -50 11 -57 37 -86 82 -91 19
-2 42 -19 71 -51 35 -40 44 -46 52 -34 5 8 10 19 10 24 0 4 20 5 44 2 51 -8
57 -2 66 59 l6 40 13 -26 c7 -14 29 -34 48 -43 46 -22 167 -31 221 -17 59 16
73 42 70 127 -3 64 -1 69 19 72 17 3 27 -8 52 -60 17 -35 40 -99 51 -143 25
-99 80 -216 115 -247 40 -34 81 -98 96 -148 12 -43 13 -43 16 -15 10 89 23 97
168 101 273 9 318 14 309 38 -3 7 7 18 22 25 28 12 28 17 9 166 -3 23 12 55
25 55 13 0 37 -49 45 -93 4 -20 10 -37 14 -37 12 0 1 616 -14 880 -16 259 -23
367 -30 415 -7 50 -26 188 -30 215 -4 32 -13 111 -19 175 -6 52 -13 122 -21
203 -3 26 -7 81 -10 122 -3 41 -7 91 -10 110 -2 19 -7 67 -10 105 -3 39 -8 99
-11 135 -3 36 -7 90 -9 120 -2 30 -6 98 -9 150 -4 52 -9 113 -11 135 -26 251
-26 751 -1 965 3 19 7 71 11 115 12 146 23 215 35 215 5 0 44 -27 87 -60 43
-33 175 -133 293 -223 258 -195 333 -267 350 -336 12 -51 25 -61 81 -61 39 0
144 -56 176 -94 15 -18 44 -53 63 -77 102 -127 165 -191 244 -249 67 -48 257
-150 282 -150 9 0 23 9 32 20 14 16 31 20 89 21 82 2 133 20 133 46 0 23 32
76 70 117 17 17 30 38 30 47 0 9 -20 33 -45 53 -48 41 -54 58 -30 83 28 28 -9
64 -278 271 -52 40 -137 114 -189 165 -100 98 -130 125 -218 197 -30 25 -60
49 -67 55 -16 13 -28 22 -83 65 -25 19 -50 39 -56 45 -6 5 -26 21 -44 35 -18
14 -65 50 -104 80 -39 31 -183 141 -321 245 -253 191 -616 467 -883 673 -145
111 -381 274 -414 285 -36 13 -25 -13 33 -77 33 -36 58 -66 54 -66 -14 0 -192
93 -280 146 -49 30 -99 60 -110 67 -11 7 -22 14 -25 17 -3 3 -33 27 -67 54
-70 55 -119 66 -169 41z"/>
<path d="M3478 7094 c-32 -8 -86 -27 -120 -43 -89 -41 -113 -47 -207 -57 -153
-15 -337 -128 -561 -344 -120 -116 -205 -177 -258 -185 -59 -10 -113 -37 -163
-81 -162 -144 -530 -405 -819 -581 -172 -104 -207 -123 -260 -134 -69 -15 -84
-29 -89 -82 -2 -17 -77 -80 -125 -104 -28 -14 -91 -39 -139 -55 -93 -30 -173
-77 -272 -162 -157 -134 -205 -209 -213 -331 -6 -97 1 -125 33 -125 21 0 23
-3 18 -34 -4 -26 0 -39 16 -55 31 -31 100 -32 143 0 28 20 58 16 58 -7 0 -21
42 -17 92 10 24 13 87 53 139 89 94 65 264 171 349 219 25 14 63 35 85 48 158
88 452 285 805 539 297 213 404 290 680 484 91 64 174 123 185 131 40 29 304
201 333 217 50 28 136 149 106 149 -3 0 -29 -11 -56 -25 -28 -14 -53 -24 -55
-21 -12 12 183 201 292 282 84 62 126 107 150 157 13 27 20 57 18 68 -11 41
-75 54 -165 33z"/>
<path d="M2469 6598 c-34 -29 -74 -63 -88 -76 l-26 -23 25 12 c74 36 180 113
180 131 0 20 -34 4 -91 -44z"/>
</g>
</svg>
