<svg fill="none" xmlns="http://www.w3.org/2000/svg" viewBox="0 0 53 47" width="53" height="47"><path fill-rule="evenodd" clip-rule="evenodd" d="M28.937.21c-.457.29-.182 1.03.813 2.184.428.497.779 1.139.779 1.425 0 .332.871 1.181 2.407 2.344 2.337 1.771 2.363 1.783.894.405-1.458-1.368-1.468-1.387-.275-.519.68.496 1.768 1.438 2.416 2.093 1.12 1.133 1.145 1.192.5 1.192-.374 0-.973-.112-1.33-.248-.948-.36-2.137-.066-2.137.529 0 .432-.271.492-2.237.492-1.574 0-2.306.11-2.471.37-.143.226-.236-.353-.24-1.481-.004-2.306-.318-2.56-3.493-2.828l-2.252-.191-.19 1.01c-.104.555-.101 2.479.006 4.274l.195 3.266-1.276-.104c-1.432-.117-1.55.014-1.617 1.783-.042 1.1-.048 1.106-1.142 1.103-2.055-.004-2.339-.19-2.339-1.54 0-.889-.108-1.207-.412-1.207-.263 0-.42-.275-.43-.756-.018-.742-.023-.745-.273-.12-.147.367-.386.556-.563.446-.17-.105-.417-.02-.549.189-.136.215-.242.246-.244.071-.003-.183-.359-.266-.882-.205-.506.059-.97-.044-1.096-.243-.157-.246-.22-.208-.223.137-.002.265-.11.482-.241.482-.13 0-.178.31-.106.688.077.401.004.688-.175.688-.17 0-.318-.465-.331-1.032l-.024-1.033-.276.826c-.349 1.042-.442 10.369-.13 12.935.13 1.06.274 3.083.323 4.497.048 1.414.232 3.171.407 3.905.3 1.248.396 2.392.505 5.99.07 2.35.81 2.806 4.72 2.912l1.238.034-.061-3.096c-.052-2.574.006-3.096.343-3.096.224 0 .408.216.41.481.003.37.059.396.237.114.129-.202.338-.347.467-.323.128.024.322-.182.431-.459.158-.4.202-.412.217-.064.014.316.264.423.905.384.487-.028 1.026.089 1.198.26.172.173.405 1.61.517 3.193.205 2.888.502 4 .99 3.698.25-.155.384.253.274.834-.029.151.095.13.276-.047.18-.178.489-.26.685-.185.214.081.407-.12.48-.504.108-.567.126-.575.16-.068.03.477.177.55.892.445.544-.08.944.013 1.096.254.258.408.39-.376.277-1.643-.037-.422.066-.606.297-.529.195.065.381.464.414.886.032.421.143.845.248.941.415.384-.363-11.027-.875-12.829-.127-.447-.06-.619.24-.619.323 0 .458.51.602 2.27.226 2.761.349 3.234.84 3.234.209 0 .506.217.66.482.155.265.284.33.289.146.004-.184.194-.264.42-.177.274.105.42-.015.433-.353.015-.405.058-.425.206-.098.213.47 1.995.576 2.313.138.11-.151.133-.492.05-.757-.09-.293-.006-.482.216-.482.215 0 .508.598.71 1.445.188.795.577 1.63.865 1.858.288.227.582.66.653.963.13.547.13.547.163-.005.028-.495.219-.554 1.793-.55.97.002 1.705-.088 1.635-.202-.07-.113 0-.206.157-.206.169 0 .217-.334.119-.826-.1-.503-.051-.825.128-.825.16 0 .351.464.423 1.032.072.568.075-1.09.008-3.681-.068-2.593-.244-5.44-.391-6.33-.415-2.505-1.14-11.677-1.14-14.414 0-.765.38-5.09.454-5.169.04-.042.577.33 1.193.826a78.894 78.894 0 0 0 2.639 2.004c.835.606 1.524 1.318 1.53 1.583.006.265.104.49.218.502.966.099 1.4.344 1.994 1.126.378.499.977 1.18 1.33 1.515.792.751 2.797 1.82 2.797 1.492 0-.132.155-.234.344-.227.852.032 1.306-.097 1.306-.369 0-.162.2-.494.443-.738.408-.408.402-.473-.067-.817-.375-.274-.421-.429-.175-.58.222-.138-.227-.618-1.33-1.422-.917-.667-1.963-1.565-2.324-1.995-.362-.43-2.673-2.3-5.136-4.156a722.241 722.241 0 0 1-6.758-5.148c-2.418-1.881-3.91-2.887-3.91-2.636 0 .084.279.42.62.747.473.455.23.385-1.032-.298-.908-.492-1.906-1.126-2.219-1.41-.623-.566-.903-.622-1.436-.284Zm-6.386.455c-.378.216-1.06.398-1.513.404-.987.013-2.677 1.088-4.23 2.692-.64.66-1.391 1.17-1.724 1.17-.325 0-.851.26-1.17.58C12.7 6.728 6.74 10.71 6.131 10.71c-.359 0-.636.166-.636.38 0 .48-.994 1.143-2.068 1.38-.451.099-1.39.703-2.085 1.343-1.034.951-1.276 1.355-1.33 2.225-.044.702.034 1.001.229.88.177-.109.235-.025.146.21-.192.498.66.842 1.127.455.252-.209.384-.194.466.055.078.232.562.024 1.471-.63.746-.537 2.164-1.413 3.152-1.947.987-.534 3.235-2.01 4.995-3.28 5.765-4.16 9.175-6.544 9.592-6.704.225-.086.567-.41.76-.719.33-.527.313-.541-.28-.232-.62.323-.62.315.055-.434.379-.42 1.176-1.12 1.771-1.558 1.299-.955 1.525-1.887.453-1.872-.39.005-1.02.186-1.398.403ZM15.91 4.12l-.65.567.756-.461c.416-.253.757-.508.757-.567 0-.215-.23-.092-.864.461Z" fill="#207FF1"/><path d="M26.12 27.06 27.477 34M32.716 7l.279 7.066" stroke="#FFFFFF" stroke-width=".5"/></svg>