<svg xmlns="http://www.w3.org/2000/svg" viewBox="0 0 962.63 962.79" width="20" height="20"><path d="M0 962.79c4.31-12.9 8.3-25 12.39-37q35.78-105.46 71.47-210.94a9.83 9.83 0 0 0-.89-7.23 465.28 465.28 0 0 1-62-295.86c11.22-88.91 44.95-168.36 101.7-237.51C192.81 88.86 282.28 34.34 390.35 10.67A457.91 457.91 0 0 1 518.43 1c101.49 6.53 192.04 41.42 271.14 105.5a464.52 464.52 0 0 1 127.41 161.31 458.73 458.73 0 0 1 41.38 138.41 466.86 466.86 0 0 1 2.66 101.69 458.39 458.39 0 0 1-52.53 179.14q-58.07 109-161.93 175.86a467.32 467.32 0 0 1-173.92 67.94 474.81 474.81 0 0 1-120.44 5.71A467.46 467.46 0 0 1 265.99 882a10.41 10.41 0 0 0-8.86-1q-110.14 35.18-220.36 70.11Zm118.92-116.54c2.07-.52 3.19-.73 4.27-1.08q71.73-22.71 143.45-45.57c3.63-1.16 6.16-.54 9.22 1.29 10.7 6.4 21.31 13 32.41 18.65 80.84 40.93 166.12 53.47 255 36.89 93.75-17.47 172.15-63 232.7-136.65 77.74-94.52 106.1-203.16 84.09-323.67-17-93.28-63.61-170.34-136.9-230.16C653.81 93 550.92 64.43 436.4 78.67a379.7 379.7 0 0 0-135.78 44.07c-71.41 38.91-126.4 94.26-163.91 166.47-40.57 78.11-52.79 160.91-38.14 247.49 9.89 58.45 32.77 111.76 67.31 160 1.85 2.58 2.25 4.69 1.21 7.69-8.22 23.87-16.29 47.79-24.39 71.7-7.84 23.1-15.66 46.21-23.78 70.16Z" fill="#207FF1"/><path d="M344.65 256c3.16 0 6.37.34 9.48-.06 10.76-1.39 17.6 3.92 21.86 13 4.67 9.91 8.83 20.06 13.1 30.16 8.85 21 17.53 42 26.48 62.91 3 7.07 2.83 13.56-.45 20.6-6.75 14.49-17.58 25.81-28.14 37.29-9.7 10.55-10.54 14.86-3 27.22 29 47.68 66.44 86.92 115.7 113.93 14.1 7.73 28.93 14.16 43.62 20.77 9.09 4.08 15 2.68 21.33-4.93q18.84-22.62 37.12-45.71c5.6-7.06 11.1-9.85 19.57-6.54 14.52 5.67 28.8 12 42.93 18.59 18.22 8.52 36.05 17.86 54.3 26.3 8.74 4 12.32 10 11.89 19.57a135.78 135.78 0 0 1-9.16 44.2c-5 12.72-14.93 21.53-25.57 29.36-15 11-31 20-49.58 23.57-6.35 1.24-12.7 2.53-19.09 3.55-16.26 2.62-31.78-1.51-47.12-5.93-34-9.81-67.45-21.41-99.39-36.86-33.09-16-62.21-37.8-89.09-62.63-41.52-38.36-75.62-82.86-104.87-131.02-12.93-21.28-22.13-44.32-25.54-69.22-5.7-41.72 5.13-78.34 34.06-109.4 7.74-8.31 15.63-16.31 27.2-18.29 7.3-1.26 14.87-.88 22.33-1.24Z" fill="#207FF1"/></svg>