<svg fill="none" xmlns="http://www.w3.org/2000/svg" viewBox="0 0 23 23" width="23" height="23"><path d="M7.003 11.572a9.559 9.559 0 0 0 4.459 4.448.915.915 0 0 0 .903-.069l2.859-1.909a.903.903 0 0 1 .869-.08l5.35 2.298a.903.903 0 0 1 .55.95A5.488 5.488 0 0 1 16.55 22 15.55 15.55 0 0 1 1 6.45a5.488 5.488 0 0 1 4.79-5.443.903.903 0 0 1 .95.55l2.298 5.362a.915.915 0 0 1-.069.857L7.06 10.68a.915.915 0 0 0-.057.892v0Z" stroke="white" stroke-width="2" stroke-linecap="round" stroke-linejoin="round"/></svg>