<svg viewBox="0 0 17 19" fill="none" xmlns="http://www.w3.org/2000/svg" width="17" height="19"><path d="M5.41 18.074c.106.14.246.176.422.176.106 0 .211 0 .316-.07l2.286-1.442a.561.561 0 0 0 .28-.492c0-.07 0-.176-.034-.246l-1.16-2.848c-.07-.21-.282-.351-.563-.351h-.035l-1.969.176a9.217 9.217 0 0 1 0-6.293l1.969.175h.035c.281 0 .492-.14.563-.351L8.68 3.66c.035-.07.035-.176.035-.246a.561.561 0 0 0-.281-.492L6.148 1.48a.591.591 0 0 0-.738.106C.84 6.12.84 13.539 5.41 18.074Zm5.274-14.449c-.141-.246-.457-.281-.668-.105l-.211.21a.426.426 0 0 0-.07.528c.07.14.105.316.105.527 0 .176-.035.352-.106.492a.426.426 0 0 0 .07.528l.212.21c.21.176.527.141.668-.105a2.396 2.396 0 0 0 0-2.285Zm3.199-3.2c-.14-.21-.422-.21-.598-.034l-.21.175c-.141.176-.177.422-.036.598a5.584 5.584 0 0 1 0 7.207c-.14.176-.105.422.035.598l.211.176c.176.175.457.175.598-.036a6.665 6.665 0 0 0 0-8.683Zm-1.617 1.583c-.141-.211-.422-.246-.598-.07l-.211.21c-.176.141-.176.387-.07.563a3.327 3.327 0 0 1 0 4.113c-.106.176-.106.422.07.563l.211.21c.176.176.457.141.598-.07 1.3-1.617 1.265-3.902 0-5.52Z" fill="#1672E1"/></svg>